<mxfile host="app.diagrams.net" modified="2023-12-03T17:41:25.090Z" agent="Mozilla/5.0 (Windows NT 10.0; Win64; x64) AppleWebKit/537.36 (KHTML, like Gecko) Chrome/119.0.0.0 Safari/537.36" version="22.1.5" etag="cGRi5R-xF0mJ-ZJ1SgO4" type="github">
  <diagram name="Seite-1" id="iST5FQogwhZrNEV7VQwE">
    <mxGraphModel>
      <root>
        <mxCell id="0" />
        <mxCell id="1" parent="0" />
      </root>
    </mxGraphModel>
  </diagram>
</mxfile>
